<svg width="313" height="313" viewBox="0 0 313 313" fill="none" xmlns="http://www.w3.org/2000/svg">
<circle cx="156.5" cy="156.5" r="156.5" fill="#D9D9D9"/>
<g clip-path="url(#clip0_61_13)">
<path d="M156.5 173.7C165.999 173.7 173.7 165.999 173.7 156.5C173.7 147.001 165.999 139.3 156.5 139.3C147.001 139.3 139.3 147.001 139.3 156.5C139.3 165.999 147.001 173.7 156.5 173.7Z" fill="#0F1011"/>
<path d="M140.375 102.75L130.539 113.5H113.5C107.587 113.5 102.75 118.337 102.75 124.25V188.75C102.75 194.663 107.587 199.5 113.5 199.5H199.5C205.413 199.5 210.25 194.663 210.25 188.75V124.25C210.25 118.337 205.413 113.5 199.5 113.5H182.461L172.625 102.75H140.375ZM156.5 183.375C141.665 183.375 129.625 171.335 129.625 156.5C129.625 141.665 141.665 129.625 156.5 129.625C171.335 129.625 183.375 141.665 183.375 156.5C183.375 171.335 171.335 183.375 156.5 183.375Z" fill="#0F1011"/>
</g>
<defs>
<clipPath id="clip0_61_13">
<rect width="129" height="129" fill="white" transform="translate(92 92)"/>
</clipPath>
</defs>
</svg>
